<?xml version="1.0" encoding="utf-8"?>
<!-- Generator: Adobe Illustrator 26.0.0, SVG Export Plug-In . SVG Version: 6.00 Build 0)  -->
<svg version="1.1" id="Publicdomainvectors.org" xmlns="http://www.w3.org/2000/svg" xmlns:xlink="http://www.w3.org/1999/xlink"
	 x="0px" y="0px" viewBox="0 0 18.9 22.9" style="enable-background:new 0 0 18.9 22.9;" xml:space="preserve">
<style type="text/css">
	.st0{fill:none;}
	.st1{fill:#0070B2;}
</style>
<path class="st0" d="M329.7,426.8C329.7,426.8,329.7,426.8,329.7,426.8C329.7,426.8,329.7,426.8,329.7,426.8"/>
<path class="st1" d="M329.7,426.8c0,0,0.1-0.1,0.1-0.2C329.8,426.6,329.8,426.7,329.7,426.8z"/>
<g>
	<path d="M5.4,13.9L5.4,13.9C5.4,13.9,5.4,13.9,5.4,13.9L5.4,13.9L5.4,13.9z M8.5,13.8c0-0.1-0.1-0.2-0.2-0.3
		c-0.1-0.1-0.2-0.2-0.3-0.3c-0.1,0-0.2-0.1-0.3-0.1c-0.1,0-0.1,0-0.2,0c0,0-0.1,0-0.1,0c0,0,0,0-0.1,0c-0.2,0-0.4,0.1-0.6,0.2
		c-0.1,0-0.1,0.1-0.2,0.2c-0.1,0-0.2-0.1-0.2-0.1c-0.1-0.1-0.2-0.1-0.3-0.2c0,0-0.1-0.1-0.1-0.1c-0.2-0.3-0.3-0.9-0.2-1.2
		c-0.2,0.1-0.2,0.5-0.3,0.8c0,0,0,0-0.1-0.1c-0.1-0.1-0.1-0.1-0.2-0.1c-0.1,0-0.1-0.1-0.2-0.1c0,0-0.1,0-0.1-0.1c0,0,0,0,0,0
		c0,0-0.1-0.1-0.1-0.1c0-0.1-0.1-0.3-0.1-0.4c0-0.2,0-0.3-0.1-0.5c0,0,0-0.1,0-0.1c0,0,0-0.1-0.1-0.1c0-0.1-0.1-0.1-0.1-0.1
		c0,0-0.1-0.1-0.1-0.1c-0.2-0.1-0.3,0-0.5,0c-0.1,0-0.2,0-0.3,0.1c-0.1,0-0.2,0-0.3,0.1c-0.1,0-0.2,0.1-0.2,0.1s0.1,0,0.2,0
		c0.1,0,0.2,0,0.3,0c0.1,0,0.2,0,0.3,0c0.1,0,0.2,0,0.3,0.1c0,0,0.1,0.1,0.1,0.1c0,0,0,0,0,0.1c0,0,0,0.1,0,0.1c0,0.1,0,0.2,0,0.4
		c-0.2,0.1-0.6,0.4-0.6,0.7c0.1,0,0.4-0.3,0.7-0.2c0,0.1,0,0.1,0.1,0.2c0,0.1,0.1,0.2,0.2,0.3c0,0,0.1,0.1,0.1,0.1
		c0,0,0.1,0,0.1,0.1c0,0,0.1,0,0.1,0.1c0,0,0.1,0,0.1,0.1c0.1,0,0.1,0.1,0.2,0.1c0.1,0,0.1,0.1,0.2,0.1c0,0,0.1,0,0.1,0.1
		c0,0,0.1,0,0.1,0.1c0.1,0.1,0.2,0.2,0.4,0.2c0.1,0,0.1,0.1,0.2,0.1c0,0.1,0,0.2,0,0.2c0,0,0,0,0,0c0,0.1-0.1,0.1-0.1,0.1
		C6,13.9,5.8,13.9,5.6,14c-0.1,0-0.1,0-0.2,0h0l0,0c0,0,0,0,0,0l0,0c0,0,0,0,0,0l0,0l0,0l0,0c0,0-0.1,0-0.1,0c-0.1,0-0.1,0-0.2,0
		c-0.1,0-0.2-0.1-0.3-0.1c0,0-0.1,0-0.1-0.1c0,0-0.1-0.1-0.1-0.1c0,0-0.1-0.1-0.1-0.1c0,0-0.1-0.1-0.1-0.1c0,0-0.1-0.1-0.1-0.1
		c0,0-0.1-0.1-0.1-0.1c0,0,0-0.1-0.1-0.1c0,0,0-0.1-0.1-0.1c0,0,0-0.1,0-0.1c0,0,0,0,0,0c0,0,0,0,0,0c0,0,0-0.1,0-0.1c0,0,0,0,0,0
		s0,0,0,0c0,0,0,0.1,0,0.1c0,0,0,0,0,0c0,0,0,0,0,0c0,0,0,0.1,0,0.1c0,0,0,0.1,0,0.1c0,0,0,0,0,0.1c0,0,0,0,0,0.1c0,0,0,0.1,0.1,0.1
		c0,0,0.1,0.1,0.1,0.1c0,0.1,0.1,0.1,0.1,0.1c0,0,0.1,0.1,0.1,0.1c0,0,0.1,0.1,0.1,0.1c0.1,0,0.1,0.1,0.2,0.1
		c0.1,0.1,0.2,0.1,0.4,0.2c0.1,0,0.1,0,0.2,0.1c0,0,0.1,0,0.1,0l0.1,0l0.1,0l0.1,0c0,0,0,0,0,0l0,0l0,0h0h0l0,0l0,0l0,0
		c0.1,0,0.1,0,0.2,0c0.1,0,0.2-0.1,0.3-0.1c0.5-0.1,0.6,1,0.5,1.4c-0.1,0.1-0.2,0.2-0.3,0.3c-0.1,0.1-0.1,0.2-0.2,0.3
		c0,0,0,0.1,0,0.1c0,0,0,0.1,0,0.1c0,0,0,0.1,0,0.1c0,0,0,0.1,0,0.1c0,0,0,0,0,0c0,0,0,0,0,0s0,0,0,0c0,0,0,0,0-0.1c0,0,0,0,0-0.1
		c0,0,0-0.1,0-0.1c0,0,0-0.1,0-0.1c0,0,0-0.1,0.1-0.1c0.1-0.1,0.1-0.1,0.2-0.2c0.2-0.1,0.3-0.2,0.5-0.3c0,0,0,0,0,0
		c0.1,0.1,0.2,0.1,0.3,0.1c0.1,0,0.2,0.1,0.3,0.1c0,0,0.1,0,0.1,0c0,0,0.1,0,0.1,0c0.1,0,0.2,0,0.2,0.1c0.1,0,0.3,0.1,0.4,0.1
		c0.1,0,0.2,0.1,0.3,0.1c0.1,0,0.1,0.1,0.2,0.1c0,0,0,0.1,0,0.1c0,0,0,0,0,0c0,0,0,0,0-0.1c0-0.1-0.1-0.1-0.1-0.2s-0.2-0.1-0.3-0.2
		c-0.1-0.1-0.2-0.1-0.4-0.2c-0.1,0-0.1-0.1-0.2-0.1c0,0-0.1,0-0.1-0.1c0,0-0.1,0-0.1,0c-0.2-0.1-0.3-0.1-0.4-0.2
		c-0.1,0-0.1-0.1-0.1-0.2C7,15.2,7,15.1,6.9,15c0-0.1-0.1-0.2-0.1-0.3l0-0.1c0,0,0-0.1,0-0.1c0-0.2,0-0.3,0-0.5
		c0.1-0.1,0.2-0.3,0.3-0.4c0.1-0.1,0.3-0.2,0.4-0.2c0,0,0,0,0.1,0c0,0,0,0,0,0c0,0,0.1,0,0.1,0c0.1,0,0.1,0,0.2,0
		c0.1,0.1,0.2,0.1,0.3,0.2C8.3,13.7,8.4,13.8,8.5,13.8C8.6,13.9,8.7,14,8.7,14s0,0,0-0.1C8.6,13.9,8.6,13.8,8.5,13.8 M5.4,13.9
		L5.4,13.9L5.4,13.9C5.4,13.9,5.4,13.9,5.4,13.9 M5,8.2C5,8.6,5.3,9,5.3,9s0-0.7,0-0.8C5.5,8,5.4,7.4,4.9,7.4C5.2,7.5,5.1,7.9,5,8.2
		 M5.9,18.7C5.9,18.7,5.9,18.7,5.9,18.7C5.9,18.7,5.9,18.7,5.9,18.7L5.9,18.7z M5.9,18.7C5.9,18.7,5.9,18.7,5.9,18.7
		C5.9,18.7,5.9,18.7,5.9,18.7 M16.3,10.7c-0.1,0-0.2,0-0.3-0.1c-0.1,0-0.2,0-0.3-0.1c-0.1,0-0.3,0-0.5,0c0,0-0.1,0-0.1,0.1
		c0,0-0.1,0.1-0.1,0.1c0,0-0.1,0.1-0.1,0.1c0,0.1,0,0.1,0,0.1c0,0.2,0,0.3-0.1,0.5c0,0.2,0,0.3-0.1,0.4c0,0.1,0,0.1-0.1,0.1
		c0,0,0,0,0,0c0,0-0.1,0-0.1,0.1c-0.1,0-0.1,0.1-0.2,0.1c-0.1,0-0.1,0.1-0.2,0.2c0,0,0,0-0.1,0.1c-0.1-0.2-0.2-0.7-0.3-0.8
		c0.1,0.4,0.1,0.9-0.2,1.2c0,0-0.1,0.1-0.1,0.1c-0.1,0.1-0.2,0.1-0.3,0.2c-0.1,0-0.2,0.1-0.2,0.1c-0.1-0.1-0.1-0.1-0.2-0.2
		c-0.2-0.1-0.4-0.2-0.6-0.2c0,0,0,0-0.1,0c0,0-0.1,0-0.1,0c-0.1,0-0.1,0-0.2,0c-0.1,0-0.2,0.1-0.3,0.1c-0.1,0.1-0.2,0.2-0.3,0.3
		c-0.1,0.1-0.1,0.2-0.2,0.3c0,0.1-0.1,0.1-0.1,0.2c0,0,0,0.1,0,0.1s0.1-0.1,0.2-0.2c0.1-0.1,0.2-0.1,0.2-0.2
		c0.1-0.1,0.2-0.1,0.3-0.2c0.1,0,0.1,0,0.2-0.1c0,0,0.1,0,0.1,0c0,0,0,0,0,0c0,0,0,0,0.1,0c0.1,0,0.3,0.1,0.4,0.2
		c0.1,0.1,0.2,0.2,0.3,0.4c0.1,0.1,0.1,0.3,0,0.5c0,0,0,0.1,0,0.1l0,0.1c0,0.1-0.1,0.2-0.1,0.3s-0.1,0.2-0.1,0.2
		c0,0.1-0.1,0.1-0.1,0.2c-0.1,0.1-0.3,0.2-0.4,0.2c0,0-0.1,0-0.1,0c0,0-0.1,0-0.1,0.1c-0.1,0-0.2,0.1-0.2,0.1
		c-0.1,0.1-0.3,0.2-0.4,0.2c-0.1,0.1-0.2,0.1-0.3,0.2c-0.1,0.1-0.1,0.1-0.1,0.2c0,0,0,0,0,0.1c0,0,0,0,0,0c0,0,0,0,0-0.1
		c0,0,0.1-0.1,0.2-0.1c0.1,0,0.2-0.1,0.3-0.1c0.1,0,0.2-0.1,0.4-0.1c0.1,0,0.1,0,0.2-0.1c0,0,0.1,0,0.1,0c0,0,0.1,0,0.1,0
		c0.1,0,0.2,0,0.3-0.1c0.1,0,0.2-0.1,0.3-0.1c0,0,0,0,0,0c0.1,0.1,0.3,0.2,0.5,0.3c0.1,0.1,0.2,0.1,0.2,0.2c0,0,0.1,0.1,0.1,0.1
		c0,0,0,0.1,0,0.1s0,0.1,0,0.1c0,0,0,0.1,0,0.1c0,0,0,0,0,0.1c0,0,0,0,0,0s0,0,0,0c0,0,0,0,0,0s0,0,0-0.1c0,0,0-0.1,0-0.1
		c0,0,0-0.1,0-0.1c0,0,0-0.1-0.1-0.1c0-0.1-0.1-0.2-0.2-0.3c-0.1-0.1-0.2-0.2-0.3-0.3c-0.2-0.2,0-1.3,0.5-1.4c0.1,0,0.2,0,0.3,0
		c0.3,0,0.5-0.1,0.8-0.2c0.2-0.1,0.4-0.2,0.6-0.4c0.4-0.3,0.5-0.7,0.5-1c0,0,0,0,0,0s0,0,0,0c0,0,0,0.1,0,0.1c0,0,0,0,0,0
		c0,0,0,0,0,0c0,0,0,0.1,0,0.1c0,0,0,0.1-0.1,0.1c0,0,0,0.1-0.1,0.1c0,0-0.1,0.1-0.1,0.1c0,0-0.1,0.1-0.1,0.1c0,0-0.1,0.1-0.1,0.1
		c0,0-0.1,0.1-0.1,0.1c0,0-0.1,0.1-0.1,0.1c0,0-0.1,0-0.1,0.1c-0.1,0-0.2,0.1-0.3,0.1c-0.3,0.1-0.8,0.1-1.1-0.1
		c-0.1,0-0.1-0.1-0.1-0.1c0,0,0,0,0,0c0-0.1,0-0.2,0-0.2c0.1,0,0.1-0.1,0.2-0.1c0.1-0.1,0.2-0.1,0.4-0.2c0,0,0.1,0,0.1-0.1
		c0,0,0,0,0.1-0.1c0.1,0,0.1-0.1,0.2-0.1c0.1,0,0.1-0.1,0.2-0.1c0,0,0.1,0,0.1-0.1c0,0,0.1,0,0.1-0.1c0,0,0.1,0,0.1-0.1
		c0.1,0,0.1-0.1,0.1-0.1c0.1-0.1,0.1-0.2,0.2-0.3c0-0.1,0-0.1,0-0.2c0.3-0.1,0.6,0.2,0.7,0.2c0-0.3-0.4-0.6-0.6-0.7
		c0-0.1,0-0.3,0-0.4c0,0,0-0.1,0-0.1c0,0,0-0.1,0-0.1c0,0,0-0.1,0.1-0.1c0.1-0.1,0.2-0.1,0.3-0.1c0.1,0,0.2,0,0.3,0
		C16.1,10.8,16.2,10.8,16.3,10.7c0.1,0.1,0.2,0,0.2,0S16.5,10.7,16.3,10.7 M14.2,8.2c0.1,0.2,0,0.8,0,0.8s0.3-0.5,0.3-0.8
		c0-0.3-0.1-0.8,0.1-0.9C14.1,7.4,14.1,8,14.2,8.2 M13.7,18.7C13.7,18.7,13.7,18.7,13.7,18.7C13.7,18.7,13.7,18.7,13.7,18.7
		L13.7,18.7z M17.4,13.2c0,0-0.1,3.1-1.8,3.5c0,0.3,0,0.8-0.5,1.4c-0.5,0.7-0.9,0.9-1.1,1c-0.2,0.5-0.8,1.3-2.1,1.4
		c-0.1,0.2-0.3,0.2-0.5,0.2c-0.1,0-0.3,0-0.4-0.1c-0.3-0.1-0.6-0.5-0.6-1.1c-0.2-0.2-0.4-0.6-0.2-1.3c-0.1-0.1-0.1-0.2-0.2-0.3
		c0-0.1,0-0.3,0.1-0.4c-0.2-0.4-0.2-0.8-0.1-1.2c0-0.4,0.1-0.7,0-1c-0.1-0.2-0.1-0.5-0.2-0.7c0,0.2-0.1,0.5-0.2,0.7
		c-0.1,0.3-0.1,0.7,0,1c0.1,0.4,0.1,0.8-0.1,1.2c0.1,0.1,0.1,0.3,0.1,0.4c0,0.1-0.1,0.2-0.2,0.3c0.3,0.7,0,1.2-0.1,1.3
		c0,0.5-0.3,0.9-0.6,1.1c-0.1,0.1-0.3,0.1-0.4,0.1c-0.2,0-0.4-0.1-0.5-0.2c-1.2-0.1-1.9-0.9-2.1-1.4c-0.2-0.1-0.6-0.3-1.1-1
		C4.1,17.4,4,17,4.1,16.7c-1.7-0.4-1.9-3.4-1.9-3.5c0-0.5,0.2-0.8,0.3-1C2.6,12,2.7,12,2.6,11.9c-0.3-0.7-0.5-3.2,0.5-4.2
		C3,7.2,3,6.5,3.4,6.1c0.1-0.2,0.2-0.4,0.3-0.6C3.9,5.1,4,4.8,4.2,4.6c0-0.5,0.6-1.1,1.1-1.3C5.5,3.2,5.7,3,5.9,2.8
		c0.4-0.4,0.8-0.7,1.1-0.7c0.1,0,0.3,0,0.5-0.1C7.9,2,8.3,1.9,8.6,2C9,2,9.2,2.2,9.3,2.4c0.1,0.2,0.2,0.5,0.1,0.8
		C9.3,3.5,9.2,4.3,9.4,4.9c0.1,0.4,0,1.5-0.1,1.9c0.1,0.2,0.3,0.6-0.1,1C9.1,7.8,9.1,7.9,9.1,7.9c0,0,0.1,0.1,0.1,0.1
		c0,0,0.1,0.1,0.1,0.1c0.1,0.1,0.1,0.4,0.1,0.9c0,0,0,0.1,0,0.1c0,0.3-0.1,0.6-0.2,0.7c0.4,0.7,0.8,2.2,0.4,2.9
		c0.1,0.3,0.2,0.6,0.2,1c0-0.4,0.1-0.7,0.2-1c-0.4-0.7,0-2.3,0.4-2.9c-0.2-0.1-0.2-0.4-0.3-0.7c0,0,0-0.1,0-0.1c0-0.5,0-0.8,0.1-0.9
		c0,0,0.1-0.1,0.1-0.1c0,0,0.1-0.1,0.1-0.1c0,0,0-0.1-0.1-0.1c-0.4-0.4-0.2-0.8-0.1-1c-0.2-0.4-0.3-1.5-0.1-1.9
		c0.1-0.5,0-1.4-0.1-1.8C10,2.9,10,2.6,10.2,2.4C10.3,2.2,10.5,2,10.9,2c0.4,0,0.7,0,1,0.1c0.2,0,0.4,0.1,0.5,0.1
		c0.3,0,0.7,0.3,1.1,0.7c0.2,0.2,0.5,0.4,0.6,0.5c0.5,0.3,1,0.8,1.1,1.3c0.3,0.2,0.4,0.5,0.5,0.8c0.1,0.2,0.2,0.5,0.3,0.6
		c0.4,0.5,0.4,1.1,0.3,1.6c1.1,1,0.8,3.5,0.6,4.2c0,0.1,0,0.1,0.1,0.3C17.2,12.4,17.4,12.7,17.4,13.2 M4.7,4.7
		C4.7,4.6,4.8,4.6,5,4.6C6,4.4,5.7,3.9,5.7,3.5C5.6,3.6,5.6,3.6,5.5,3.6C5,3.9,4.6,4.4,4.7,4.7 M3.5,7.4c0.3,0,0.5-0.1,0.6-0.2
		C4.2,7.1,4.3,7,4.2,6.9l0,0c-0.1-0.3,0-0.5,0.2-1.1c0.1-0.2,0.1-0.4,0.1-0.6c0-0.1,0-0.2,0-0.3C4.3,5,4.2,5.3,4.1,5.6
		C4,5.8,3.9,6.1,3.8,6.3C3.5,6.6,3.5,7.1,3.5,7.4 M4.5,16.2c0.2,0,0.2,0,0.3-0.2c0-0.1,0-0.3,0-0.4c0,0,0,0,0,0
		c-0.1-0.1-0.2-0.2-0.2-0.4c0-0.1-0.1-0.1-0.1-0.2l0,0c0,0,0,0,0,0c0,0,0,0,0,0c0,0,0,0,0,0c0,0-0.1,0-0.2-0.1c-0.2,0-0.4,0-0.6,0.1
		c0,0,0,0,0,0c0,0,0,0,0,0c0,0,0,0,0-0.1c0,0,0,0,0,0c0,0,0,0,0,0c0,0,0.1,0,0.1-0.1c0.1,0,0.1-0.1,0.2-0.1c0,0,0.1,0,0.1,0
		c0-0.1,0-0.1,0-0.2c-0.1-0.1-0.1-0.2-0.2-0.2c-0.1-0.1-0.1-0.2-0.2-0.2c-0.1-0.1-0.2-0.1-0.2-0.2c0,0,0,0-0.1,0c0,0,0,0,0,0l0,0
		l0,0c0,0,0,0-0.1,0c0,0,0,0-0.1,0c-0.1,0-0.2,0-0.3,0c0,0-0.1,0-0.1,0c0,0,0.1,0.7,0.2,0.8c0.1,0.5,0.3,1,0.7,1.4
		c0.2,0.2,0.4,0.3,0.6,0.3C4.3,16.3,4.4,16.2,4.5,16.2 M6.1,18.7C6,18.7,6,18.7,6.1,18.7c-0.1,0-0.1-0.1-0.1-0.1c0,0,0,0,0-0.1
		c0,0,0,0,0-0.1c0,0-0.1-0.1-0.1-0.1c0,0,0-0.1,0-0.1c0-0.1,0-0.1,0-0.2c0-0.1,0-0.1,0-0.1c0-0.1,0-0.2,0-0.2c0-0.1,0-0.1,0-0.2
		c-0.1-0.1-0.2-0.1-0.3-0.2c-0.1-0.1-0.2-0.2-0.3-0.3c-0.1-0.2-0.2-0.3-0.2-0.5c0,0-0.1,0-0.1,0.1c-0.1,0-0.1,0-0.2,0
		c0,0-0.1,0-0.1,0l0,0c0,0-0.2,0.4,0.4,1.2c0.5,0.7,0.9,0.9,1,0.9c0,0,0,0,0,0L6.1,18.7z M9.3,14c0-0.2,0-0.4,0-0.6
		c0-0.1,0-0.2,0-0.3c0-0.1-0.1-0.2-0.1-0.2l0-0.1l0,0c0-0.1-0.1-0.2-0.2-0.3c-0.1-0.1-0.2-0.3-0.3-0.4c-0.1-0.1-0.2-0.2-0.3-0.3
		c-0.1-0.1-0.2-0.1-0.3-0.2c0,0-0.1,0-0.1,0c0,0-0.1,0-0.1,0.1c0,0,0,0,0,0c0,0.1-0.1,0.1-0.1,0.2c0,0.1-0.1,0.1-0.1,0.1
		c-0.1,0-0.1,0.1-0.2,0.1c-0.1,0-0.1,0.1-0.2,0.1c-0.1,0-0.1,0.1-0.2,0.1c-0.1,0-0.1,0.1-0.2,0.1c-0.1,0-0.1,0.1-0.1,0.1
		c0,0-0.1,0.1-0.1,0.1c0,0,0,0.1-0.1,0.1c0,0,0,0,0,0c0,0,0,0,0,0c0,0,0,0,0,0c0,0,0,0.1,0,0.1c0,0,0,0,0,0s0,0,0,0c0,0,0,0-0.1,0
		c0,0,0,0,0,0c0,0,0,0,0,0c0,0,0,0,0,0c0,0,0-0.1,0-0.1c0,0,0-0.1,0-0.1c0-0.1,0-0.1,0.1-0.2c0-0.1,0.1-0.1,0.1-0.2
		C6.9,12.1,6.9,12,7,12c0.1,0,0.1-0.1,0.2-0.1c0.1,0,0.1-0.1,0.2-0.1c0.1,0,0.1-0.1,0.2-0.1c0-0.1,0-0.3-0.1-0.4
		c-0.1-0.1-0.3-0.1-0.4-0.2c-0.1-0.1-0.2-0.1-0.3-0.2c-0.1,0-0.1-0.1-0.2-0.2c-0.3,0-0.7,0.2-0.9,0.3c0-0.1,0.2-0.4,0.4-0.5
		c0,0-0.1,0-0.1,0c-0.2,0-0.4-0.1-0.6-0.2c-0.1,0-0.2-0.1-0.3-0.2C4.8,10,4.7,10,4.6,9.9l0,0c0,0,0,0,0,0c0,0-0.1,0-0.1,0
		c-0.1,0-0.2,0-0.3,0C3.9,9.9,3.7,10,3.5,10c-0.2,0-0.3,0.1-0.4,0.1c0,0-0.1,0-0.1,0.1c0,0,0,0,0,0s0,0,0,0s0,0,0,0
		c0,0,0-0.1,0.1-0.1c0,0,0.1-0.1,0.2-0.2c0.1-0.1,0.5-0.2,0.5-0.4c0-0.2-0.2-0.5-0.3-0.6c0,0,0,0,0,0C3.4,8.6,3.3,8.3,3.3,8.1
		C2.6,9,2.7,10.8,2.9,11.5c0,0,0,0.1,0.1,0.1c0.1,0.1,0.1,0.3,0.2,0.4c0.1,0.2,0.1,0.3,0.1,0.4c0,0.1,0,0.1,0,0.2c0,0,0,0.1,0,0.1
		c0,0,0,0,0,0c0,0,0,0,0,0c0,0,0-0.1,0-0.1c0-0.1-0.1-0.2-0.2-0.3c0,0.1-0.1,0.2-0.2,0.3c-0.1,0.2-0.3,0.4-0.3,0.7c0,0,0,0.1,0,0.2
		c0,0,0.1,0.1,0.2,0.1c0.3-0.1,0.6,0.1,0.9,0.2c0.1,0.1,0.4,0.4,0.5,0.5c0,0.1,0.1,0.2,0.2,0.2c0,0,0.2,0.2,0.5,0.3
		c0.2,0-0.3,0-0.3,0.1c0,0.1,0.1,0.3,0.3,0.5c0.2,0.2,0.5,0.2,0.8-0.1c-0.1,0.5-0.4,0.6-0.5,0.9c0,0,0,0,0,0
		c0.1,0.2,0.2,0.4,0.3,0.5C5.5,16.9,5.6,17,5.6,17c0.1,0.1,0.2,0.1,0.3,0.1c0,0,0,0,0.1,0c0,0,0.1,0,0.1,0c0.1,0,0.1,0,0.2,0
		c0.1,0,0.2,0,0.4,0c0.2,0,0.5,0,0.7,0.1c0.1,0,0.2,0,0.3,0.1c0.1,0,0.2,0.1,0.2,0.1c0.1,0,0.1,0.1,0.1,0.1c0,0,0,0,0,0s0,0,0,0
		s0,0,0,0c0,0-0.1,0-0.1-0.1c-0.1,0-0.3,0-0.5,0c-0.2,0-0.4,0.1-0.7,0.1c-0.1,0-0.3,0-0.4,0c-0.1,0-0.1,0-0.2,0c0,0,0,0,0,0
		c0,0,0,0.1,0,0.1c0,0,0,0,0,0c0,0,0,0.1,0,0.1c0,0,0,0.1,0,0.1c0,0,0,0.1,0,0.1c0,0,0,0.1,0,0.1c0,0,0,0.1,0,0.1c0,0,0,0,0,0.1
		c0,0,0,0,0,0.1c0,0,0,0.1,0,0.1c0,0,0,0.1,0,0.1c0,0,0,0,0,0c0,0,0,0,0,0c0,0,0,0,0,0l0,0c0,0,0,0,0,0c0,0,0,0,0,0s0,0,0,0
		c0,0.1-0.1,0.2-0.1,0.2c0.2,0.4,0.7,0.9,1.7,1l0.1,0c0,0,0,0,0-0.1c0-0.1,0-0.2,0-0.4c0-0.1,0-0.1,0-0.2c0,0,0-0.1,0-0.1
		c0,0,0,0,0,0l0,0c0,0-0.1,0-0.1,0c-0.1,0-0.2,0-0.2,0c-0.1,0-0.1,0-0.2-0.1c-0.1,0-0.1,0-0.2-0.1c-0.1,0-0.2-0.1-0.2-0.1
		C6.9,19,6.8,19,6.8,19s0,0,0.1,0c0.1,0,0.2,0,0.3,0c0.1,0,0.1,0,0.2,0c0,0,0.1,0,0.1,0c0,0,0.1,0,0.1,0c0,0,0.1,0,0.1,0
		c0,0,0.1,0,0.1,0c0,0,0.1,0,0.1,0l0.1,0l0,0h0h0c0,0,0,0,0,0c0,0,0,0,0.1,0c0,0,0.1,0.1,0.1,0.1c0,0,0,0.1,0,0.1c0,0.1,0,0.1,0,0.1
		c0,0.1,0,0.2,0,0.2c0,0.2-0.1,0.3-0.1,0.4c0,0,0,0.1-0.1,0.1l0,0c0.1,0.2,0.4,0.1,0.5,0.1c0.2-0.1,0.4-0.4,0.4-0.7l0-0.1L9,19.3
		c0,0,0.3-0.3,0.1-0.9c-0.1,0-0.2,0-0.3,0.2c0,0.2-0.1,0.4-0.2,0.7c0.1-0.2,0-0.4-0.1-0.6c0,0,0,0,0,0c-0.1,0-0.2,0-0.2,0
		c-0.1,0-0.3-0.1-0.4-0.1c-0.2-0.1-0.4-0.2-0.5-0.2c-0.1-0.1-0.2-0.1-0.2-0.1s0.1,0,0.2,0c0.1,0,0.2,0,0.2,0c0.1,0,0.2,0,0.3,0
		c0.1,0,0.2,0,0.4,0c0.1,0,0.3,0,0.3-0.1C8.8,18.2,8.9,18.1,9,18c0,0,0.1-0.1,0.1-0.1c0,0,0,0,0-0.1c0,0,0-0.1-0.1-0.1
		c0,0-0.1-0.1-0.1-0.1c-0.1-0.1-0.2-0.2-0.4-0.2c-0.1-0.1-0.3-0.1-0.4-0.2C8,17.1,7.9,17,7.8,17c-0.2-0.1-0.4-0.2-0.5-0.3
		c-0.1,0-0.1-0.1-0.1-0.1c0,0,0-0.1,0-0.1c0,0,0,0,0,0c0,0,0.1,0,0.1,0.1c0.1,0.1,0.3,0.1,0.5,0.2c0.2,0.1,0.5,0.2,0.8,0.3
		c0.1,0.1,0.3,0.1,0.4,0.2c0,0,0,0,0.1,0c0.1-0.3,0.1-0.6,0-1c0-0.3-0.1-0.6,0-0.9c0,0,0,0-0.1,0c0,0-0.1,0-0.1,0l0,0l0,0l0,0l0,0
		l0,0l0,0c0,0-0.1,0-0.1,0c0,0,0,0-0.1,0c-0.2-0.1-0.3-0.2-0.4-0.3C8.2,15,8.1,14.9,8,14.8c-0.1-0.1-0.2-0.1-0.3-0.1
		c-0.1,0-0.1,0-0.2,0c0,0,0,0-0.1,0c0,0,0,0,0,0s0,0,0,0c0,0,0,0,0,0c0,0,0.1-0.1,0.2-0.1c0.1,0,0.2,0,0.3,0.1
		c0.1,0.1,0.2,0.1,0.4,0.2c0.1,0.1,0.3,0.2,0.4,0.2c0,0,0,0,0.1,0c0.1,0,0.2,0,0.2-0.1c0-0.1,0.1-0.1,0.1-0.2c0-0.1,0-0.2,0-0.3
		C9.3,14.4,9.3,14.2,9.3,14 M8,19.3C8,19.3,8,19.3,8,19.3L8,19.3L8,19.3C7.9,19.3,7.9,19.3,8,19.3C8,19.3,8,19.3,8,19.3L8,19.3z
		 M4.5,9.9L4.5,9.9C4.5,9.8,4.5,9.8,4.5,9.9 M4.5,9.9L4.5,9.9C4.5,9.9,4.5,9.9,4.5,9.9L4.5,9.9 M8.8,10L8.3,9.6c-0.1,0-0.2,0-0.2,0
		c0,0,0,0-0.1,0c0,0-0.1,0-0.1,0c0,0,0,0,0,0C7.8,9.7,7.7,9.8,7.6,9.9C7.6,10,7.5,10,7.5,10.1c0,0.1,0,0.1,0,0.2c0,0,0,0.1,0,0.1
		s0,0,0,0c0,0,0,0,0,0c0,0-0.1-0.1-0.1-0.2c0-0.1,0-0.1,0-0.2c-0.1-0.2,0-0.7,0.1-1c0,0,0-0.1-0.1-0.1C7.4,8.6,7.4,8.5,7.3,8.4
		c0,0,0,0,0,0l0,0c0,0,0-0.1,0-0.1c0-0.1,0-0.1,0-0.2c0-0.1,0-0.2,0-0.3c0-0.1,0.1-0.2,0.1-0.3c0-0.1,0.1-0.2,0.1-0.2
		C7.4,7.1,7.5,7,7.5,7c0,0,0-0.1,0-0.1c0,0,0,0,0,0l0,0c0,0,0,0,0,0l0,0l0,0c0,0,0,0,0,0l0,0l0,0c0,0,0,0,0,0l0,0c0,0,0,0,0,0
		c0,0,0,0,0,0c0,0,0,0,0-0.1c0-0.1-0.1-0.1-0.1-0.2c0,0,0,0,0,0c0,0,0,0,0,0c0,0,0,0,0,0c0,0,0,0,0,0c0,0,0,0,0,0c0,0,0,0,0,0
		c0,0,0,0,0,0s0,0,0,0c0,0,0,0,0,0c0,0,0,0,0,0c0,0,0,0,0.1,0c0,0,0,0,0.1,0c0,0,0,0,0.1,0c0,0,0,0,0.1,0c0,0,0.1,0,0.1,0
		c0,0,0-0.1,0.1-0.1C7.6,6.1,7.7,6,7.8,5.9C8,5.7,8.2,5.6,8.3,5.5c0.1,0,0.1-0.1,0.1-0.1c0,0,0,0,0,0c0,0,0,0,0,0c0,0,0,0,0,0.1
		c0,0,0,0.1-0.1,0.2c0,0.1-0.1,0.1-0.2,0.2C8.1,5.8,8,5.9,7.9,6C7.9,6.1,7.8,6.2,7.8,6.3c0,0.1,0,0.2,0,0.3l0,0l0,0l0,0l0,0
		c0,0,0,0,0,0l0,0c0,0,0,0,0,0.1c0,0.1,0,0.1,0,0.2c0,0.1-0.1,0.2-0.1,0.3c0,0.1-0.1,0.2-0.1,0.2c0,0.1-0.1,0.2-0.1,0.2
		c0,0.1,0,0.1,0,0.2c0,0,0,0.1,0,0.1c0,0,0,0,0,0l0,0c0,0,0,0,0,0c0.1,0.2,0.2,0.3,0.2,0.5C7.9,8.8,8,8.9,8,9.1c0,0,0,0.1,0,0.1
		c0,0,0,0,0,0c0,0.1,0,0,0,0.1l0,0c0,0,0,0,0,0c0,0,0.8,0.2,0.8,0.2C9,9.6,9,9.4,9,9.2c0,0,0-0.1,0-0.1c0-0.1,0-0.5,0-0.7
		c0,0,0,0,0,0C8.9,8.3,8.7,8.2,8.7,7.9c0-0.2,0-0.3,0.2-0.5C9,7.3,9,7.1,8.9,7c0,0,0,0,0,0h0c0,0,0,0,0,0c0-0.1-0.1-0.1,0-0.2
		c0,0,0,0,0,0c0,0,0,0,0,0c0,0,0,0,0,0c0,0-0.1,0-0.1-0.1c-0.1,0-0.1-0.1-0.2-0.1c-0.1,0-0.1-0.1-0.2-0.1c0,0,0,0-0.1-0.1
		c0,0,0,0,0,0c0,0,0,0,0,0s0,0,0.1,0c0,0,0,0,0.1,0c0,0,0,0,0.1,0c0.1,0,0.1,0,0.2,0c0.1,0,0.2,0,0.2,0.1c0,0,0.1,0,0.1,0
		c0,0,0,0,0,0C9,6,9.1,5.3,9,5C8.9,4.8,8.9,4.6,8.9,4.4c0,0,0,0,0,0c0,0,0-0.1,0-0.1c0,0,0-0.1,0-0.2c0-0.1,0-0.1-0.1-0.2
		c0,0,0-0.1,0-0.1c0,0,0-0.1,0-0.1c0,0,0-0.1,0-0.1c0,0,0,0,0-0.1c0,0,0,0,0-0.1c0,0,0,0,0,0c0,0,0,0,0,0s0,0,0,0c0,0,0,0,0.1,0
		c0,0,0,0,0.1,0c0,0,0.1,0.1,0.2,0.1c0,0,0.1,0,0.1,0.1c0,0,0,0,0.1,0.1C8.9,3.4,9,3.2,9,3c0-0.2,0-0.3,0-0.4
		C8.9,2.5,8.8,2.3,8.6,2.3c-0.1,0-0.8,0-0.6,0.4C8,2.8,8.1,2.9,8.1,3c0.1,0.1,0.1,0.2,0.1,0.3c0,0.1,0,0.1,0,0.2c0,0,0,0,0,0.1
		c0,0,0,0,0,0.1c0,0-0.1,0.1-0.1,0.1c0,0-0.1,0-0.1,0c0,0-0.1,0-0.1,0s0,0,0.1-0.1c0,0,0,0,0.1-0.1c0,0,0-0.1,0.1-0.1c0,0,0,0,0-0.1
		c0,0,0,0,0-0.1c0,0,0-0.1,0-0.1C8.1,3.2,8,3.2,8,3.1C7.8,2.9,7.5,2.5,7.4,2.4c-0.1,0-0.3,0-0.4,0c-0.1,0-0.5,0.4-0.7,0.6
		C6.1,3.2,6,3.2,6,3.3c0,0,0,0.1,0,0.2c0.2,0.7,0.1,1.1-0.9,1.4C4.8,4.9,4.8,5,4.8,5.2c0,0.1,0,0.2,0,0.2c0.2,0,0.3-0.1,0.5-0.1
		c0.2,0,0.4-0.1,0.5-0.1c0,0,0.1,0,0.1-0.1c0,0,0,0,0.1-0.1c0,0,0-0.1,0-0.1c0,0,0,0,0,0.1c0,0,0,0,0,0.1c0,0,0,0.1-0.1,0.1
		C5.8,5.4,5.6,5.5,5.4,5.5C5.2,5.6,5,5.7,4.9,5.8c0,0-0.1,0.1-0.1,0.1c0,0-0.1,0.2-0.2,0.2C4.5,6.6,4.5,6.6,4.6,6.9
		c0.1,0.2,0,0.3-0.2,0.5c0,0,0,0,0,0.1c0,0.1,0,0.3,0,0.5c0,0.2,0,0.3,0.1,0.5c0,0.1,0,0.1,0.1,0.1c0,0,0,0,0,0c0,0,0,0-0.1,0
		c0,0-0.1-0.1-0.1-0.1C4.3,8.3,4.2,8.2,4.2,8c0-0.1-0.1-0.2-0.1-0.3C4,7.7,3.9,7.7,3.7,7.8C3.4,8,3.7,8.6,3.8,8.8
		C3.9,9,3.9,9.1,4,9.2c0.1,0.1,0.3,0.2,0.4,0.3c0.1,0,0.3,0.1,0.4,0.1c0,0,0.1,0,0.1,0L4.4,9.3C4.6,9.3,5,9,5.2,9.2
		C4.9,9.2,4.8,9.4,5,9.7l-0.1,0c0,0,0.1,0.1,0.2,0.1c0.1,0.1,0.2,0.1,0.3,0.2c0.2,0.1,0.4,0.2,0.5,0.3c0.1,0,0.1,0.1,0.2,0.1
		c0,0-0.1-0.1-0.1-0.1C5.9,10,5.8,9.9,5.8,9.7c0-0.2,0-0.4,0-0.5c0-0.1,0-0.2,0.1-0.3c0-0.1,0.1-0.2,0.1-0.2C6,8.5,6.1,8.4,6.1,8.2
		c0-0.1,0-0.3,0-0.4c0-0.1,0-0.1,0-0.2c0-0.1,0-0.1-0.1-0.2l0-0.1c0,0,0-0.1,0-0.1c0-0.1,0-0.2-0.1-0.3c0,0,0-0.1,0-0.2c0,0,0,0,0,0
		C5.8,6.6,5.7,6.5,5.6,6.4C5.5,6.4,5.4,6.3,5.3,6.3c0,0,0,0-0.1,0c0,0,0,0,0,0c0,0,0,0,0,0c0,0,0,0,0,0c0,0,0,0,0,0s0,0,0.1,0
		c0.1,0,0.1,0,0.2,0c0.1,0,0.1,0,0.2,0.1c0.1,0,0.2,0.1,0.3,0.1c0,0,0-0.1,0.1-0.1C6.1,6.2,6.1,6.1,6.2,6c0,0,0.1-0.1,0.1-0.1
		c0,0,0.1-0.1,0.1-0.1c0,0,0.1-0.1,0.1-0.1c0-0.1,0.1-0.1,0.1-0.2c0.1-0.1,0.1-0.2,0.1-0.4c0-0.1,0-0.2,0-0.4c0-0.1,0-0.1-0.1-0.2
		l0,0l0,0l0,0c0,0,0,0,0-0.1c0-0.1,0-0.2,0-0.2c0-0.1,0-0.1,0-0.2c0-0.1,0.1-0.2,0.2-0.3C6.9,3.6,7,3.5,7.1,3.4
		c0-0.1,0.1-0.1,0.1-0.2c0-0.1,0-0.1,0-0.1c0,0,0-0.1,0-0.1c0,0,0,0,0,0s0,0,0,0c0,0,0,0,0.1,0.1c0,0,0,0.1,0.1,0.1
		c0,0.1,0,0.1,0,0.2C7.1,3.6,7,3.7,6.9,3.9c0,0.1-0.1,0.2-0.1,0.3c0,0.1,0,0.2,0,0.3c0,0,0,0,0,0l0,0l0,0l0,0C6.9,4.6,7,4.7,7,4.8
		c0.1-0.1,0.2-0.1,0.2-0.1c0.1-0.1,0.2-0.1,0.3-0.2c0,0,0,0,0-0.1l0,0c0,0,0,0,0-0.1c0-0.1,0.1-0.1,0.2-0.2s0.2,0,0.2,0
		c0.1,0,0.1,0.1,0.2,0.1c0.1,0.1,0.1,0.2,0.1,0.2c0,0.1,0,0.1,0,0.1s0,0,0-0.1c0-0.1-0.1-0.1-0.2-0.2c0,0-0.1,0-0.1-0.1
		c-0.1,0-0.1,0-0.1,0c0,0-0.1,0.1-0.1,0.1c0,0,0,0,0,0l0,0.1c0,0,0,0.1-0.1,0.1c0,0.1-0.1,0.1-0.2,0.2C7.5,4.8,7.4,4.8,7.4,4.9
		C7.3,5,7.2,5,7.2,5.1c0,0.1-0.1,0.1-0.1,0.2c0,0.1-0.2,0.4-0.2,0.4c0,0.1-0.1,0.2-0.1,0.2c0,0.1-0.1,0.1-0.2,0.2c0,0-0.1,0-0.1,0.1
		c0,0,0,0-0.1,0.1c0,0-0.1,0.1-0.1,0.1C6.3,6.5,6.3,6.7,6.3,6.8c0,0.1,0,0.1,0,0.2c0,0,0,0.1,0,0.1l0,0.1l0,0.1
		c0,0.1,0.1,0.2,0.1,0.3c0,0.1,0,0.2,0.1,0.3c0,0.2,0,0.4,0,0.6c0,0.2-0.1,0.3-0.2,0.5c0,0.1-0.1,0.1-0.1,0.2c0,0.1-0.1,0.1-0.1,0.2
		c0,0.1,0,0.3,0,0.4c0,0.3,0.2,0.5,0.3,0.7c0,0.1,0.1,0.1,0.1,0.1c0,0,0,0,0.1,0.1c0,0,0,0,0.1,0.1c0.1,0.1,0.2,0.2,0.3,0.2
		c0.2,0.1,0.4,0.3,0.6,0.3c0.2,0.1,0.3,0,0.4,0c0,0,0.1,0,0.1-0.1c0.1,0,0.1-0.1,0.1-0.1c0,0,0-0.1,0.1-0.1c0,0,0,0,0,0s0,0,0,0
		c0,0,0,0,0,0.1c0,0,0,0.1-0.1,0.1c-0.1,0.3-0.1,0.3,0.3,0.6c0.1,0.1,0.2,0.1,0.3,0.2c0.1,0.1,0.2,0.2,0.4,0.4c0,0,0,0.1,0.1,0.1
		C9.4,11.5,9,10.1,8.8,10 M15.1,5.8c0.2,0.6,0.3,0.7,0.2,1.1h0c0,0.2,0,0.3,0.1,0.3c0.1,0.1,0.4,0.2,0.6,0.2c0.1-0.4,0-0.8-0.2-1.1
		c-0.2-0.2-0.3-0.5-0.4-0.8C15.3,5.3,15.2,5,15,4.9c0,0.1,0,0.2,0,0.3C15,5.4,15,5.5,15.1,5.8 M14.6,4.6c0.1,0,0.2,0.1,0.3,0.1
		c0-0.3-0.4-0.8-0.8-1c-0.1,0-0.1-0.1-0.2-0.1C13.8,3.9,13.5,4.4,14.6,4.6 M10.3,12.2c0.1-0.2,0.2-0.3,0.4-0.4
		c0.1-0.1,0.2-0.2,0.3-0.2c0.3-0.3,0.4-0.3,0.2-0.6c0,0,0-0.1-0.1-0.1c0,0,0-0.1,0-0.1c0,0,0,0,0,0s0,0,0,0c0,0,0,0,0.1,0.1
		c0,0,0.1,0.1,0.2,0.1c0,0,0.1,0.1,0.1,0.1c0.1,0.1,0.3,0.1,0.4,0c0.2-0.1,0.4-0.2,0.6-0.3c0.1-0.1,0.2-0.2,0.3-0.2c0,0,0,0,0.1-0.1
		c0,0,0,0,0.1-0.1c0,0,0.1-0.1,0.1-0.1c0.2-0.2,0.3-0.4,0.3-0.7c0-0.1,0-0.3,0-0.4c0-0.1,0-0.1-0.1-0.2c0-0.1-0.1-0.1-0.1-0.2
		c-0.1-0.2-0.1-0.3-0.2-0.5C13,8.1,13,7.9,13,7.8c0-0.1,0-0.2,0-0.3c0-0.1,0.1-0.2,0.1-0.3l0-0.1l0-0.1c0,0,0-0.1,0-0.1
		c0-0.1,0-0.1,0-0.2c0-0.1,0-0.2-0.1-0.3c0-0.1-0.1-0.1-0.1-0.1c0,0,0,0-0.1-0.1c0,0,0,0-0.1-0.1C12.8,6.1,12.8,6,12.7,6
		c0-0.1-0.1-0.2-0.1-0.2c0,0-0.2-0.4-0.2-0.4c0,0,0-0.1-0.1-0.2c0-0.1-0.1-0.1-0.2-0.2c-0.1,0-0.1-0.1-0.2-0.1
		c-0.1-0.1-0.1-0.1-0.2-0.2c0,0,0-0.1-0.1-0.1l0-0.1c0,0,0,0,0,0c0-0.1-0.1-0.1-0.1-0.1c0,0-0.1,0-0.1,0c-0.1,0-0.1,0-0.1,0.1
		c-0.1,0.1-0.1,0.1-0.2,0.2c0,0.1,0,0.1,0,0.1s0,0,0-0.1c0-0.1,0.1-0.1,0.1-0.2c0,0,0.1-0.1,0.2-0.1c0.1,0,0.2,0,0.2,0
		c0.1,0,0.1,0.1,0.2,0.2c0,0,0,0,0,0.1l0,0c0,0,0,0,0,0.1c0.1,0.1,0.2,0.1,0.3,0.2c0.1,0,0.2,0.1,0.2,0.1c0-0.1,0.1-0.1,0.1-0.2l0,0
		l0,0l0,0c0,0,0,0,0,0c0-0.1,0.1-0.2,0-0.3c0-0.1-0.1-0.2-0.1-0.3c-0.1-0.2-0.2-0.3-0.3-0.5c0-0.1,0-0.1,0-0.2c0-0.1,0-0.1,0.1-0.1
		c0,0,0-0.1,0.1-0.1c0,0,0,0,0,0s0,0,0,0s0,0,0,0.1c0,0,0,0.1,0,0.1c0,0.1,0,0.1,0.1,0.2c0.1,0.1,0.2,0.2,0.3,0.4
		C12.8,3.9,12.9,4,13,4.1c0,0.1,0,0.1,0,0.2c0,0.1,0,0.2,0,0.2c0,0,0,0,0,0.1l0,0l0,0l0,0c0,0,0,0.1-0.1,0.2c0,0.1,0,0.2,0,0.4
		c0,0.1,0.1,0.2,0.1,0.4C13,5.6,13,5.7,13,5.7c0,0.1,0.1,0.1,0.1,0.1c0,0,0.1,0,0.1,0.1c0,0,0.1,0.1,0.1,0.1
		c0.1,0.1,0.1,0.1,0.2,0.2c0,0,0,0.1,0.1,0.1c0.1,0,0.2-0.1,0.3-0.1c0.1,0,0.1,0,0.2-0.1c0.1,0,0.1,0,0.2,0c0,0,0.1,0,0.1,0
		c0,0,0,0,0,0c0,0,0,0,0,0c0,0,0,0,0,0c0,0,0,0,0,0c0,0,0,0-0.1,0c-0.1,0-0.2,0.1-0.3,0.2c-0.1,0.1-0.2,0.2-0.3,0.2c0,0,0,0,0,0
		c0,0.1,0,0.1,0,0.2c0,0.1,0,0.2-0.1,0.3c0,0,0,0.1,0,0.1l0,0.1c0,0.1-0.1,0.1-0.1,0.2c0,0.1,0,0.1,0,0.2c0,0.1,0,0.3,0,0.4
		c0,0.1,0.1,0.3,0.2,0.4c0,0.1,0.1,0.2,0.1,0.2c0,0.1,0.1,0.2,0.1,0.3c0,0.2,0.1,0.4,0,0.5c0,0.2-0.1,0.3-0.2,0.5
		c0,0-0.1,0.1-0.1,0.1c0.1,0,0.1-0.1,0.2-0.1c0.1-0.1,0.3-0.2,0.5-0.3c0.1-0.1,0.2-0.1,0.3-0.2c0.1-0.1,0.2-0.2,0.4-0.2
		c0,0,0.1,0,0.2,0c0-0.1-0.1-0.2-0.3-0.3c0.2-0.1,0.4,0.1,0.6,0.1c0.1-0.1,0.2-0.1,0.2-0.2c0.1-0.1,0.1-0.2,0.2-0.3
		c0.1-0.2,0.4-0.8,0.1-1.1c-0.1,0-0.2-0.1-0.3-0.1c0,0.1,0,0.2-0.1,0.3c-0.1,0.2-0.1,0.4-0.2,0.5c0,0.1-0.1,0.1-0.1,0.1
		c0,0-0.1,0-0.1,0c0,0,0,0,0,0c0,0,0.1-0.1,0.1-0.1c0-0.1,0.1-0.3,0.1-0.5c0-0.2,0-0.3,0-0.5c0,0,0,0,0-0.1C15,7.3,14.9,7.1,15,6.9
		c0.1-0.3,0.1-0.4-0.1-0.8c-0.1-0.1-0.2-0.2-0.2-0.2c0,0-0.1-0.1-0.1-0.1c-0.1-0.1-0.3-0.1-0.5-0.2c-0.2-0.1-0.4-0.2-0.5-0.3
		c0,0-0.1-0.1-0.1-0.1c0,0,0-0.1,0-0.1c0,0,0-0.1,0-0.1c0,0,0,0,0,0.1c0,0,0,0,0.1,0.1c0,0,0.1,0,0.1,0.1c0.1,0.1,0.3,0.1,0.5,0.1
		c0.2,0,0.4,0,0.5,0.1c0-0.1,0-0.2,0-0.2c0-0.2,0-0.2-0.2-0.3c-1.1-0.3-1.1-0.6-0.9-1.4c0-0.1,0-0.1,0-0.2c-0.1-0.1-0.2-0.1-0.2-0.2
		c-0.3-0.2-0.7-0.6-0.8-0.6c-0.1,0-0.3,0-0.4,0c-0.2,0.1-0.4,0.4-0.6,0.6c-0.1,0.1-0.1,0.2-0.1,0.2c0,0,0,0.1,0,0.1c0,0,0,0,0,0.1
		c0,0,0,0,0,0.1c0,0,0,0.1,0.1,0.1c0,0,0,0,0.1,0.1c0,0,0.1,0,0.1,0s0,0-0.1,0c0,0,0,0-0.1,0c0,0-0.1,0-0.1-0.1c0,0,0,0,0-0.1
		c0,0,0,0,0-0.1c0,0,0-0.1,0-0.2c0-0.1,0-0.2,0.1-0.3c0.1-0.1,0.1-0.2,0.2-0.3c0.2-0.3-0.5-0.4-0.6-0.4c-0.2,0-0.3,0.2-0.4,0.3
		c-0.1,0.1-0.1,0.3,0,0.4c0.1,0.2,0.1,0.4,0.1,0.8c0,0,0,0,0.1-0.1c0,0,0.1,0,0.1-0.1c0.1,0,0.1-0.1,0.2-0.1c0,0,0,0,0.1,0
		c0,0,0,0,0.1,0c0,0,0,0,0,0s0,0,0,0c0,0,0,0,0,0c0,0,0,0,0,0.1c0,0,0,0,0,0.1c0,0,0,0,0,0.1c0,0,0,0.1,0,0.1c0,0,0,0.1,0,0.1
		c0,0.1,0,0.1-0.1,0.2c0,0.1,0,0.1,0,0.2c0,0,0,0.1,0,0.1c0,0,0,0,0,0c0,0.2,0,0.4-0.1,0.6c-0.1,0.3,0,1,0.1,1.4c0,0,0,0,0,0
		c0,0,0.1,0,0.1,0c0.1,0,0.2,0,0.2-0.1c0.1,0,0.1,0,0.2,0c0,0,0.1,0,0.1,0c0,0,0,0,0.1,0c0,0,0.1,0,0.1,0s0,0,0,0c0,0,0,0,0,0
		c0,0,0,0-0.1,0.1c-0.1,0-0.1,0.1-0.2,0.1c-0.1,0-0.1,0.1-0.2,0.1c0,0-0.1,0-0.1,0.1c0,0,0,0,0,0c0,0,0,0,0,0c0,0,0,0,0,0
		c0,0.1,0,0.2,0,0.2c0,0,0,0,0,0h0c0,0,0,0,0,0c-0.1,0.2-0.2,0.3,0,0.5c0.1,0.2,0.2,0.3,0.2,0.5c0,0.2-0.2,0.3-0.3,0.4c0,0,0,0,0,0
		c0,0.1,0,0.5,0,0.7c0,0,0,0.1,0,0.1c0,0.3,0.1,0.4,0.1,0.4c0,0,0.8-0.2,0.8-0.2c0,0,0,0,0,0l0,0c0,0,0,0,0-0.1c0,0,0,0,0,0
		c0,0,0-0.1,0-0.1c0-0.2,0.1-0.3,0.1-0.5c0.1-0.2,0.1-0.3,0.2-0.5c0,0,0,0,0,0l0,0c0,0,0,0,0,0c0,0,0,0,0-0.1c0-0.1,0-0.1,0-0.2
		c0-0.1,0-0.1-0.1-0.2c0-0.1-0.1-0.2-0.1-0.2c0-0.1-0.1-0.2-0.1-0.3c0-0.1,0-0.1,0-0.2c0,0,0,0,0-0.1l0,0c0,0,0,0,0,0l0,0l0,0l0,0
		l0,0c0.1-0.1,0.1-0.2,0-0.3c0-0.1-0.1-0.2-0.2-0.3c-0.1-0.1-0.2-0.2-0.2-0.3c-0.1-0.1-0.1-0.2-0.2-0.2c0-0.1-0.1-0.1-0.1-0.2
		c0,0,0-0.1,0-0.1c0,0,0,0,0,0c0,0,0,0,0,0c0,0,0.1,0.1,0.1,0.1c0.1,0.1,0.3,0.2,0.5,0.4C11.9,6,12,6.1,12.1,6.3c0,0,0,0.1,0.1,0.1
		c0,0,0.1,0,0.1,0c0,0,0,0,0.1,0c0,0,0,0,0.1,0c0,0,0,0,0.1,0c0,0,0,0,0.1,0c0,0,0,0,0,0c0,0,0,0,0,0c0,0,0,0,0,0s0,0,0,0
		c0,0,0,0,0,0c0,0,0,0,0,0c0,0,0,0,0,0c0,0,0,0,0,0c0,0,0,0,0,0c0,0,0,0,0,0c-0.1,0.1-0.1,0.1-0.1,0.2c0,0,0,0,0,0.1c0,0,0,0,0,0
		c0,0,0,0,0,0l0,0c0,0,0,0,0,0l0,0l0,0c0,0,0,0,0,0l0,0l0,0c0,0,0,0,0,0l0,0c0,0,0,0,0,0c0,0,0,0,0,0.1c0,0.1,0,0.1,0.1,0.2
		s0.1,0.2,0.1,0.2c0,0.1,0.1,0.2,0.1,0.3c0,0.1,0.1,0.2,0,0.3c0,0.1,0,0.1,0,0.2c0,0,0,0.1,0,0.1l0,0c0,0,0,0,0,0
		c-0.1,0.1-0.2,0.3-0.2,0.4c0,0,0,0.1-0.1,0.1c0.1,0.2,0.2,0.7,0.1,1c0,0.1,0,0.2,0,0.2c0,0.1,0,0.1-0.1,0.2c0,0,0,0,0,0
		c0,0,0,0,0,0s0,0,0-0.1c0,0,0-0.1,0-0.2C12.1,10,12,10,12,9.9c-0.1-0.1-0.1-0.2-0.2-0.2c0,0,0,0,0,0c-0.1,0-0.1,0-0.1,0
		c0,0-0.1,0-0.1,0c0,0-0.1,0-0.2,0L10.8,10c-0.2,0.2-0.7,1.6-0.5,2.3C10.3,12.3,10.3,12.3,10.3,12.2 M15.1,9.8L15.1,9.8
		C15.1,9.8,15.1,9.8,15.1,9.8 M15,9.8L15,9.8C15,9.8,15,9.8,15,9.8C15,9.8,15,9.8,15,9.8 M15.1,16.6L15.1,16.6c0,0-0.1,0-0.1,0
		c-0.1,0-0.1,0-0.2,0c0,0-0.1,0-0.1-0.1c0,0.2-0.1,0.3-0.2,0.5c-0.1,0.1-0.2,0.2-0.3,0.3c-0.1,0.1-0.2,0.1-0.3,0.2
		c0,0.1,0,0.1,0,0.2c0,0.1,0,0.1,0,0.2c0,0,0,0.1,0,0.1c0,0.1,0,0.1,0,0.2c0,0.1,0,0.1,0,0.1c0,0,0,0.1-0.1,0.1c0,0,0,0,0,0.1
		c0,0,0,0,0,0.1c0,0-0.1,0.1-0.1,0.1c0,0,0,0,0,0l0.2,0c0,0,0,0,0,0c0.1,0,0.4-0.2,1-0.9C15.4,17,15.1,16.6,15.1,16.6 M16.9,13.8
		c0,0-0.1,0-0.1,0c-0.3,0-0.5-0.1-0.7,0.1c-0.1,0.1-0.2,0.3-0.2,0.4c-0.1,0.1-0.1,0.2-0.2,0.2c-0.1,0.3,0.1,0.2,0.3,0.3
		c0,0,0.1,0,0.1,0.1c0,0,0,0,0,0c0,0,0,0,0,0c0,0,0,0,0,0.1c0,0,0,0,0,0c0,0,0,0,0,0c-0.2-0.1-0.4-0.2-0.6-0.1c-0.1,0-0.1,0-0.2,0.1
		c0,0,0,0,0,0c0,0,0,0,0,0c0,0,0,0,0,0l0,0c0,0.1-0.1,0.1-0.1,0.2c-0.1,0.2-0.2,0.3-0.2,0.4c0,0,0,0,0,0c-0.1,0.1-0.1,0.3,0,0.4
		c0,0.2,0.1,0.2,0.3,0.2c0.1,0,0.2,0,0.3,0c0.2,0,0.4-0.1,0.6-0.3c0.4-0.4,0.6-0.9,0.7-1.4C16.8,14.5,16.9,13.8,16.9,13.8
		 M16.7,12.5c-0.1-0.1-0.1-0.2-0.2-0.2c-0.1,0.1-0.2,0.2-0.2,0.3c0,0.1,0,0.1,0,0.1c0,0,0,0,0,0c0,0,0,0,0,0c0,0,0,0,0-0.1
		c0,0,0-0.1,0-0.2c0-0.1,0.1-0.3,0.1-0.4s0.1-0.3,0.2-0.4c0-0.1,0-0.1,0.1-0.1c0.2-0.8,0.3-2.6-0.4-3.4c0,0.2-0.1,0.4-0.2,0.7
		c0,0,0,0,0,0C16,9,15.8,9.3,15.8,9.5c0,0.2,0.4,0.3,0.5,0.4c0.1,0.1,0.1,0.1,0.2,0.1c0,0,0.1,0.1,0.1,0.1c0,0,0,0,0,0c0,0,0,0,0,0
		s0,0,0,0c0,0-0.1,0-0.1-0.1c-0.1,0-0.2-0.1-0.4-0.1c-0.2,0-0.4-0.1-0.6-0.1c-0.1,0-0.2,0-0.3,0c0,0-0.1,0-0.1,0c0,0,0,0,0,0l0,0
		c-0.1,0.1-0.2,0.2-0.3,0.2c-0.1,0.1-0.2,0.1-0.3,0.2c-0.2,0.1-0.4,0.2-0.6,0.2c0,0-0.1,0-0.1,0c0.2,0.1,0.4,0.4,0.4,0.5
		c-0.2-0.1-0.6-0.3-0.9-0.3c-0.1,0.1-0.1,0.1-0.2,0.2c-0.1,0.1-0.2,0.2-0.3,0.2c-0.1,0.1-0.3,0.2-0.4,0.2c-0.1,0.1-0.2,0.2-0.1,0.4
		c0.1,0,0.1,0.1,0.2,0.1c0.1,0,0.1,0.1,0.2,0.1c0.1,0,0.1,0.1,0.2,0.1c0.1,0,0.1,0.1,0.2,0.1c0,0.1,0.1,0.1,0.1,0.2
		c0,0.1,0.1,0.1,0.1,0.2c0,0,0,0.1,0,0.1c0,0,0,0.1,0,0.1c0,0,0,0,0,0c0,0,0,0,0,0c0,0,0,0,0,0c0,0-0.1,0-0.1,0c0,0,0,0,0,0s0,0,0,0
		c0,0,0,0,0-0.1c0,0,0,0,0,0c0,0,0,0,0,0c0,0,0,0,0,0c0,0,0-0.1-0.1-0.1c0,0-0.1-0.1-0.1-0.1c0,0-0.1-0.1-0.1-0.1
		c-0.1,0-0.1-0.1-0.2-0.1c-0.1,0-0.1-0.1-0.2-0.1c-0.1,0-0.1-0.1-0.2-0.1c-0.1,0-0.1-0.1-0.2-0.1c-0.1,0-0.1-0.1-0.1-0.1
		c0-0.1-0.1-0.1-0.1-0.2c0,0,0,0,0,0c0,0-0.1,0-0.1-0.1c0,0,0,0-0.1,0c-0.1,0-0.2,0.1-0.3,0.2c-0.1,0.1-0.2,0.2-0.3,0.3
		c-0.1,0.1-0.2,0.2-0.3,0.4c-0.1,0.1-0.1,0.2-0.2,0.3l0,0l0,0.1c0,0.1-0.1,0.2-0.1,0.2c0,0.1,0,0.2,0,0.3c0,0.2,0,0.4,0,0.6
		c0,0.2,0,0.4,0,0.6c0,0.1,0,0.2,0,0.3c0,0.1,0,0.2,0.1,0.2c0.1,0.1,0.1,0.1,0.2,0.1c0,0,0,0,0.1,0c0.1,0,0.3-0.1,0.4-0.2
		c0.1-0.1,0.3-0.2,0.4-0.2c0.1-0.1,0.2-0.1,0.3-0.1c0.1,0,0.2,0,0.2,0.1c0,0,0,0,0,0s0,0,0,0s0,0,0,0c0,0,0,0-0.1,0c0,0-0.1,0-0.2,0
		c-0.1,0-0.2,0.1-0.3,0.1c-0.1,0.1-0.2,0.2-0.3,0.3c-0.1,0.1-0.3,0.2-0.4,0.3c0,0,0,0-0.1,0c0,0-0.1,0-0.1,0l0,0l0,0h0l0,0l0,0l0,0
		c0,0-0.1,0-0.1,0c0,0,0,0-0.1,0c0,0.3,0,0.6,0,0.9c0,0.4-0.1,0.7,0.1,1c0,0,0,0,0.1,0c0.1-0.1,0.3-0.1,0.4-0.2
		c0.3-0.1,0.5-0.2,0.8-0.3c0.2-0.1,0.4-0.1,0.5-0.2c0.1,0,0.1-0.1,0.1-0.1c0,0,0,0,0,0c0,0,0,0,0,0.1c0,0-0.1,0.1-0.1,0.1
		c-0.1,0.1-0.3,0.2-0.5,0.3c-0.1,0.1-0.2,0.1-0.3,0.2c-0.1,0.1-0.2,0.1-0.4,0.2c-0.1,0.1-0.3,0.1-0.4,0.2c-0.1,0-0.1,0.1-0.1,0.1
		c0,0-0.1,0.1-0.1,0.1c0,0,0,0.1,0,0.1c0,0,0,0.1,0.1,0.1c0.1,0.1,0.2,0.1,0.3,0.2c0.1,0,0.2,0.1,0.3,0.1c0.1,0,0.2,0,0.4,0
		c0.1,0,0.2,0,0.3,0c0.1,0,0.2,0,0.2,0c0.1,0,0.2,0,0.2,0s-0.1,0-0.2,0.1c-0.1,0.1-0.3,0.2-0.5,0.2c-0.1,0-0.2,0.1-0.4,0.1
		c-0.1,0-0.2,0-0.2,0c0,0,0,0,0,0C11,18.8,11,19,11,19.2c-0.1-0.2-0.2-0.5-0.2-0.7c-0.1-0.2-0.2-0.2-0.3-0.2
		c-0.2,0.6,0.1,0.9,0.1,0.9l0.1,0.1l0,0.1c0,0.4,0.2,0.7,0.4,0.7c0.1,0,0.4,0.1,0.5-0.1l0,0c0,0,0-0.1-0.1-0.1
		c-0.1-0.1-0.1-0.2-0.1-0.4c0-0.1,0-0.2,0-0.2c0,0,0-0.1,0-0.1c0,0,0-0.1,0-0.1c0,0,0.1-0.1,0.1-0.1c0,0,0,0,0.1,0c0,0,0,0,0,0h0h0
		l0,0l0.1,0c0,0,0.1,0,0.1,0c0,0,0.1,0,0.1,0c0,0,0.1,0,0.1,0c0,0,0.1,0,0.1,0c0,0,0.1,0,0.1,0c0.1,0,0.1,0,0.2,0c0.1,0,0.2,0,0.3,0
		c0.1,0,0.1,0,0.1,0s0,0-0.1,0.1c-0.1,0-0.1,0.1-0.2,0.1c-0.1,0-0.1,0-0.2,0.1c-0.1,0-0.1,0-0.2,0.1c-0.1,0-0.2,0-0.2,0
		c0,0-0.1,0-0.1,0l0,0c0,0,0,0,0,0c0,0,0,0,0,0.1c0,0.1,0,0.1,0,0.2c0,0.1,0,0.3,0,0.4c0,0,0,0.1,0,0.1l0.1,0c1-0.1,1.5-0.7,1.7-1
		c-0.1,0-0.1-0.1-0.1-0.2c0,0,0,0,0,0s0,0,0,0c0,0,0,0,0,0l0,0c0,0,0,0,0,0c0,0,0,0,0,0c0,0,0,0,0,0c0,0,0-0.1,0-0.1
		c0,0,0-0.1,0-0.1c0,0,0,0,0-0.1c0,0,0,0,0-0.1c0,0,0-0.1,0-0.1c0,0,0-0.1,0-0.1c0,0,0-0.1,0-0.1c0,0,0-0.1,0-0.1c0,0,0-0.1,0-0.1
		c0,0,0,0,0,0c0,0,0-0.1,0-0.1c0,0,0,0,0,0c-0.1,0-0.1,0-0.2,0c-0.1,0-0.3,0-0.4,0c-0.3,0-0.5,0-0.7-0.1c-0.2,0-0.4,0-0.5,0
		c0,0-0.1,0-0.1,0.1c0,0,0,0,0,0s0,0,0,0c0,0,0,0,0,0c0,0,0-0.1,0.1-0.1c0.1,0,0.1-0.1,0.2-0.1s0.2-0.1,0.3-0.1
		c0.2,0,0.4-0.1,0.7-0.1c0.1,0,0.2,0,0.4,0c0.1,0,0.1,0,0.2,0c0,0,0.1,0,0.1,0c0,0,0,0,0.1,0c0.1,0,0.2-0.1,0.3-0.1
		c0.1-0.1,0.2-0.1,0.2-0.2c0.1-0.2,0.3-0.4,0.3-0.5c0,0,0,0,0,0c-0.1-0.2-0.5-0.4-0.5-0.9c0.3,0.3,0.6,0.2,0.8,0.1
		c0.2-0.1,0.1-0.3,0.1-0.4c0-0.4,0.4-0.4,0.7-0.9c0.1-0.1,0.2-0.5,0.3-0.6c0.1-0.1,0.1-0.1,0.3-0.1c0.2-0.1,0.5,0,0.7,0.1
		c0,0,0.1,0,0.1,0c0-0.2,0-0.4,0-0.4C17,12.8,16.9,12.6,16.7,12.5 M11.7,19.3L11.7,19.3C11.7,19.3,11.7,19.3,11.7,19.3
		C11.7,19.3,11.7,19.3,11.7,19.3L11.7,19.3L11.7,19.3C11.7,19.3,11.7,19.3,11.7,19.3 M13.8,18.7C13.8,18.7,13.8,18.7,13.8,18.7
		C13.8,18.7,13.8,18.7,13.8,18.7"/>
</g>
</svg>
